<?xml version="1.0" encoding="UTF-8" standalone="no"?>
<svg width="398px" height="403px" viewBox="0 0 398 403" version="1.1" xmlns="http://www.w3.org/2000/svg" xmlns:xlink="http://www.w3.org/1999/xlink" xmlns:sketch="http://www.bohemiancoding.com/sketch/ns">
    <!-- Generator: Sketch 3.5.2 (25235) - http://www.bohemiancoding.com/sketch -->
    <title>poop</title>
    <desc>Created with Sketch.</desc>
    <defs>
        <filter x="-50%" y="-50%" width="200%" height="200%" filterUnits="objectBoundingBox" id="filter-1">
            <feGaussianBlur stdDeviation="0.897863051" in="SourceGraphic" result="blur"></feGaussianBlur>
        </filter>
        <filter x="-50%" y="-50%" width="200%" height="200%" filterUnits="objectBoundingBox" id="filter-2">
            <feGaussianBlur stdDeviation="1" in="SourceGraphic" result="blur"></feGaussianBlur>
        </filter>
    </defs>
    <g id="Page-1" stroke="none" stroke-width="1" fill="none" fill-rule="evenodd" sketch:type="MSPage">
        <g id="poop" sketch:type="MSArtboardGroup">
            <g sketch:type="MSLayerGroup" transform="translate(3.000000, 6.000000)">
                <path d="M213.194954,-2.84217094e-14 C136.670089,40.0601438 97.2700601,84.767493 97.2700601,101.895262 C97.2700601,119.023031 110.494352,126.909198 110.494352,126.909198 C110.494352,126.909198 44.0208321,170.25563 44.0208303,207.031245 C44.0208292,230.12027 60.9945724,231.946604 60.9945724,231.946604 C60.9945724,231.946604 1.57580042e-15,275.404137 0,319.816635 C1.57580045e-15,345.69312 20.1951005,392.147572 195,392.147572 C369.8049,392.147572 390,333.357782 390,308.405457 C390,265.370398 331.034179,234.199795 331.034179,234.199795 C331.034179,234.199795 350.70999,231.946604 350.70999,201.031245 C350.70999,170.115887 275.949831,126.909198 275.949831,126.909198 C275.949831,126.909198 298.076867,116.510195 291.80578,92.9529118 C280.667449,74.8701775 255.884553,67.8949685 219.008361,54.6838785 C182.13217,41.4727886 177.825181,40.0601456 213.194954,-2.84217094e-14 Z" id="Path-1" fill="#A3786C" sketch:type="MSShapeGroup"></path>
                <g id="Eye" transform="translate(136.000000, 149.000000)" sketch:type="MSShapeGroup">
                    <path d="M16.5,48.0382789 C33,48.0382789 33,56.9387598 33,34.6590909 C33,12.379422 25.6126984,0.323318351 16.5,0.323318351 C7.38730163,0.323318351 0,12.379422 0,34.6590909 C0,56.9387598 0,48.0382789 16.5,48.0382789 Z" id="Oval-1" fill="#FAFAFA"></path>
                    <path d="M32.6143769,26.244233 C30.3605021,23.3641188 27.285837,21.5909091 23.8965517,21.5909091 C16.9834702,21.5909091 11.3793103,28.9680354 11.3793103,38.0681818 C11.3793103,41.847538 12.3459161,45.3297075 13.9714504,48.1096744 C14.7680213,48.064174 15.610008,48.0382789 16.5,48.0382789 C33,48.0382789 33,56.9387598 33,34.6590909 C33,31.6684509 32.8668943,28.8620209 32.6143769,26.244233 Z" id="Oval-2" fill="#000000"></path>
                </g>
                <g id="Eye-2" transform="translate(221.000000, 149.000000)" sketch:type="MSShapeGroup">
                    <path d="M16.5,48.0382789 C33,48.0382789 33,56.9387598 33,34.6590909 C33,12.379422 25.6126984,0.323318351 16.5,0.323318351 C7.38730163,0.323318351 0,12.379422 0,34.6590909 C0,56.9387598 0,48.0382789 16.5,48.0382789 Z" id="Oval-1" fill="#FAFAFA"></path>
                    <path d="M32.6143769,26.244233 C30.3605021,23.3641188 27.285837,21.5909091 23.8965517,21.5909091 C16.9834702,21.5909091 11.3793103,28.9680354 11.3793103,38.0681818 C11.3793103,41.847538 12.3459161,45.3297075 13.9714504,48.1096744 C14.7680213,48.064174 15.610008,48.0382789 16.5,48.0382789 C33,48.0382789 33,56.9387598 33,34.6590909 C33,31.6684509 32.8668943,28.8620209 32.6143769,26.244233 Z" id="Oval-2" fill="#000000"></path>
                </g>
                <g id="Mouth" transform="translate(116.000000, 229.000000)" sketch:type="MSShapeGroup">
                    <path d="M49.0722892,11.2068966 C49.0722892,11.2068966 53.9843578,18.1034483 79.8787777,18.1034483 C105.773198,18.1034483 109.051085,11.2068966 109.051085,11.2068966" id="Path-2" stroke="#000000" stroke-width="4"></path>
                    <path d="M115,0 C115,0 108.927711,2.04741882 108.927711,12.8405747 C108.927711,23.6337306 115,25 115,25" id="Path-2" stroke="#000000" stroke-width="4"></path>
                    <path d="M43,0 C43,0 49.0722892,2.04741882 49.0722892,12.8405747 C49.0722892,23.6337306 43,25 43,25" id="Path-2" stroke="#000000" stroke-width="4"></path>
                    <ellipse id="Oval-7" fill="#FAA8A8" filter="url(#filter-1)" cx="148" cy="15.5" rx="10" ry="15.5"></ellipse>
                    <ellipse id="Oval-7-Copy" fill="#FAA8A8" filter="url(#filter-2)" cx="10" cy="15.5" rx="10" ry="15.5"></ellipse>
                </g>
            </g>
        </g>
    </g>
</svg>